<svg width="250" height="80" viewBox="0 0 250 80" fill="none" xmlns="http://www.w3.org/2000/svg">
<path d="M109.55 59.2L101 59H98.35C94.4833 59 91.7 59.1333 90 59.4C89.8333 59.2 89.75 58.9167 89.75 58.55L89.8 58.15C91.5333 57.75 92.6667 57.1333 93.2 56.3C93.6333 55.6333 93.9167 54.8 94.05 53.8C94.45 50.7667 94.65 46.6333 94.65 41.4C94.65 30.4333 94.35 24.85 93.75 24.65C93.1167 24.4833 92.0167 24.4 90.45 24.4C90.3833 24.1667 90.35 23.9 90.35 23.6C90.35 23.3 90.3833 23.05 90.45 22.85L98.05 23H103.8L115.6 22.65C116.167 22.65 116.45 22.8333 116.45 23.2C116.45 23.2333 116.4 23.6333 116.3 24.4C115.967 26.4667 115.733 28.7833 115.6 31.35C115.2 31.55 114.833 31.65 114.5 31.65C114.2 31.65 113.917 31.5833 113.65 31.45C113.25 28.4167 112.95 26.5333 112.75 25.8C109.717 25.1 106.983 24.75 104.55 24.75C102.15 24.75 100.483 24.8167 99.55 24.95C99.15 27.0833 98.95 31.8333 98.95 39.2C99.4833 39.3333 100.9 39.4 103.2 39.4C105.5 39.4 107.217 39.3333 108.35 39.2C109.483 39.0667 110.3 38.8 110.8 38.4C111.333 38 111.733 37.1833 112 35.95C112.7 35.95 113.217 36.05 113.55 36.25C113.217 38.15 113.05 39.55 113.05 40.45L113.15 44.8C112.917 44.9667 112.617 45.05 112.25 45.05L111.55 44.95L111 41.65C109.2 41.35 107.1 41.2 104.7 41.2C102.3 41.2 100.383 41.2833 98.95 41.45V50.4C98.95 53.5333 99.05 55.7333 99.25 57C100.283 57.1333 101.467 57.2 102.8 57.2C106.233 57.2 109.633 56.75 113 55.85C113.5 55.05 113.983 54.0167 114.45 52.75C114.917 51.45 115.183 50.6833 115.25 50.45C115.45 50.4167 115.717 50.4 116.05 50.4C116.383 50.4 116.75 50.55 117.15 50.85C116.65 53.2167 116.283 55.6667 116.05 58.2C116.017 58.6 115.8 58.8167 115.4 58.85C113.933 59.0833 111.983 59.2 109.55 59.2Z" fill="white"/>
<path d="M125.071 34.35L129.271 34.2C129.371 34.3667 129.421 34.6167 129.421 34.95L129.271 35.75C128.237 35.75 127.504 35.7833 127.071 35.85C127.371 38.2167 128.154 40.8 129.421 43.6L133.821 53.25L137.271 44C138.471 40.7667 139.221 38.1 139.521 36C138.521 35.8333 137.454 35.75 136.321 35.75C136.254 35.5167 136.221 35.25 136.221 34.95C136.221 34.6167 136.254 34.3667 136.321 34.2C137.654 34.3 139.104 34.35 140.671 34.35C142.271 34.35 143.671 34.25 144.871 34.05C145.104 34.4167 145.221 34.85 145.221 35.35C144.387 35.7167 143.787 36.0833 143.421 36.45C142.287 37.5833 141.237 39.3667 140.271 41.8L132.871 60H132.121L124.721 42.6C123.354 39.3 122.271 37.2167 121.471 36.35C121.037 35.8167 120.371 35.4167 119.471 35.15C119.437 35.05 119.421 34.8667 119.421 34.6C119.421 34.3333 119.521 34.0833 119.721 33.85C122.021 34.1833 123.804 34.35 125.071 34.35Z" fill="white"/>
<path d="M159.543 56.4C162.276 56.4 164.693 55.6667 166.793 54.2C167.26 54.3667 167.526 54.7167 167.593 55.25L162.193 59.05C161.393 59.6833 159.61 60 156.843 60C154.076 60 151.726 58.7667 149.793 56.3C147.86 53.8 146.893 50.65 146.893 46.85C146.893 43.05 147.943 40.05 150.043 37.85C152.143 35.65 154.643 34.2167 157.543 33.55C160.076 33.55 162.31 34.4 164.243 36.1C165.41 37.1 166.226 38.4 166.693 40C166.793 40.4 167.26 40.6167 168.093 40.65C168.293 40.8833 168.393 41.1333 168.393 41.4C168.393 41.6333 168.36 41.8833 168.293 42.15C162.426 43.5167 156.66 44.4667 150.993 45C150.993 49.2667 152.176 52.4667 154.543 54.6C155.876 55.8 157.543 56.4 159.543 56.4ZM162.693 41.15C162.86 41.05 162.943 40.9333 162.943 40.8C162.943 40.6333 162.726 40.1667 162.293 39.4C161.893 38.6 161.176 37.7667 160.143 36.9C159.11 36 158.026 35.55 156.893 35.55C155.76 35.55 154.926 35.7167 154.393 36.05C152.526 37.3167 151.46 39.6167 151.193 42.95C152.993 42.95 155.043 42.7667 157.343 42.4C159.643 42 161.426 41.5833 162.693 41.15Z" fill="white"/>
<path d="M173.773 36.55L171.823 36.6C171.69 36.4333 171.623 36.2167 171.623 35.95C171.623 35.6833 171.656 35.45 171.723 35.25C173.99 34.95 175.84 34.4833 177.273 33.85C177.74 33.65 178.023 33.55 178.123 33.55C178.423 33.55 178.79 34.0167 179.223 34.95C179.656 35.8833 180.023 36.9167 180.323 38.05C183.69 36.15 186.973 34.65 190.173 33.55C192.206 33.55 193.773 34.3667 194.873 36C195.973 37.6 196.523 39.7333 196.523 42.4L196.423 49C196.423 54.5667 196.673 57.4 197.173 57.5C197.673 57.5667 198.606 57.6 199.973 57.6C200.106 57.8333 200.173 58.0833 200.173 58.35C200.173 58.6167 200.106 58.8833 199.973 59.15L195.373 59C192.606 59 190.406 59.1333 188.773 59.4C188.606 59.2 188.523 58.9167 188.523 58.55L188.573 58.15C189.54 57.9167 190.29 57.6 190.823 57.2C191.356 56.7667 191.69 56.3667 191.823 56C191.99 55.6 192.123 55.0167 192.223 54.25C192.323 53.45 192.373 51.9167 192.373 49.65V45.5C192.373 43.1667 192.106 41.2 191.573 39.6C191.34 38.9667 191.073 38.5 190.773 38.2C190.04 37.4 189.156 37 188.123 37C187.09 37 186.056 37.2 185.023 37.6C183.99 38 183.206 38.3667 182.673 38.7C182.14 39.0333 181.39 39.5333 180.423 40.2C180.29 42.8333 180.223 46.3667 180.223 50.8C180.223 55.2 180.44 57.4333 180.873 57.5C181.34 57.5667 182.19 57.6 183.423 57.6C183.556 57.8333 183.623 58.0833 183.623 58.35C183.623 58.6167 183.556 58.8833 183.423 59.15L179.173 59C176.64 59 174.44 59.1333 172.573 59.4C172.406 59.2 172.323 58.9167 172.323 58.55L172.373 58.15C173.34 57.9167 174.09 57.6 174.623 57.2C175.156 56.7667 175.49 56.3667 175.623 56C175.79 55.6 175.923 54.8833 176.023 53.85C176.156 52.7833 176.223 50.5167 176.223 47.05C176.223 43.5833 176.206 41.6667 176.173 41.3C176.173 40.9 176.156 40.4 176.123 39.8C176.09 39.2 176.023 38.75 175.923 38.45C175.823 38.15 175.673 37.8333 175.473 37.5C175.14 36.8667 174.573 36.55 173.773 36.55Z" fill="white"/>
<path d="M211.266 48.25C211.266 53.7833 212.216 56.55 214.116 56.55C215.516 56.55 217.333 56.0833 219.566 55.15C220.066 55.3167 220.316 55.7833 220.316 56.55C217.883 57.85 215.083 59 211.916 60C210.349 60 209.149 59.2 208.316 57.6C207.516 56 207.116 53.85 207.116 51.15V39.55C207.116 37.5833 206.999 36.6 206.766 36.6L203.066 36.65C202.833 36.5833 202.716 36.4167 202.716 36.15C202.883 35.8167 203.033 35.2167 203.166 34.35H206.716C206.983 34.35 207.116 33.7667 207.116 32.6L207.066 28.35C208.299 27.85 209.566 26.8167 210.866 25.25C211.266 25.25 211.566 25.35 211.766 25.55C211.466 29.05 211.316 31.9833 211.316 34.35C213.749 34.35 216.149 34.2333 218.516 34C218.749 34.1333 218.866 34.3333 218.866 34.6C218.666 34.9333 218.499 35.55 218.366 36.45L211.266 36.55V48.25Z" fill="white"/>
<path d="M247.384 46.8C247.384 54.2 243.084 58.6 234.484 60C230.95 60 227.967 58.75 225.534 56.25C223.134 53.7167 221.934 50.5667 221.934 46.8C221.934 39.3333 226.25 34.9167 234.884 33.55C238.384 33.55 241.334 34.8333 243.734 37.4C246.167 39.9667 247.384 43.1 247.384 46.8ZM235.584 57.85C240.384 57.85 242.784 54.7833 242.784 48.65C242.784 45.1833 241.984 42.15 240.384 39.55C238.784 36.95 236.667 35.65 234.034 35.65C231.4 35.65 229.484 36.5 228.284 38.2C227.117 39.8667 226.534 42.2667 226.534 45.4C226.534 48.5 227.35 51.35 228.984 53.95C230.617 56.55 232.817 57.85 235.584 57.85Z" fill="white"/>
<path d="M83 40C83 62.0914 65.0914 80 43 80C20.9086 80 3 62.0914 3 40C3 17.9086 20.9086 0 43 0C65.0914 0 83 17.9086 83 40Z" fill="#6AC045"/>
<path d="M43.42 68.694C40.9047 68.694 38.6203 68.3603 36.567 67.693C34.565 67.0257 32.871 66.1017 31.485 64.921C30.099 63.689 29.021 62.2517 28.251 60.609C27.5323 58.915 27.173 57.067 27.173 55.065C27.173 52.909 27.5837 50.9327 28.405 49.136C29.2777 47.288 30.561 45.594 32.255 44.054C33.949 42.4627 36.0537 41.051 38.569 39.819C36.9777 38.895 35.7713 37.6117 34.95 35.969C34.1287 34.3263 33.7437 32.3757 33.795 30.117C33.8463 28.423 34.334 26.7547 35.258 25.112C36.2333 23.4693 37.4653 22.0063 38.954 20.723C40.494 19.4397 42.0853 18.567 43.728 18.105L48.117 18.721C45.2937 20.6203 43.3687 22.6223 42.342 24.727C41.3667 26.7803 40.8533 28.6797 40.802 30.425C40.7507 31.9137 40.9047 33.2997 41.264 34.583C41.6747 35.815 42.2907 36.97 43.112 38.048C43.42 38.048 43.959 38.048 44.729 38.048C45.499 38.048 46.3203 38.0737 47.193 38.125C48.117 38.125 48.887 38.125 49.503 38.125C50.1703 38.125 51.2227 38.125 52.66 38.125C54.0973 38.0737 55.432 37.971 56.664 37.817C56.7667 38.0223 56.8437 38.2533 56.895 38.51C56.9463 38.7153 56.972 38.972 56.972 39.28C56.972 40.4093 56.4843 41.3847 55.509 42.206C54.585 42.976 53.2247 43.361 51.428 43.361C50.1447 43.361 48.9127 43.284 47.732 43.13C46.5513 42.9247 45.0883 42.591 43.343 42.129C40.571 43.7717 38.492 45.5683 37.106 47.519C35.7713 49.4697 35.104 51.6 35.104 53.91C35.104 57.0413 36.105 59.3257 38.107 60.763C40.1603 62.2003 42.5473 62.919 45.268 62.919C47.5267 62.919 49.734 62.457 51.89 61.533C54.0973 60.609 55.971 59.454 57.511 58.068C57.8703 58.3247 58.127 58.6583 58.281 59.069C58.435 59.4797 58.512 59.916 58.512 60.378C58.512 61.456 58.1013 62.4827 57.28 63.458C56.51 64.4333 55.432 65.3317 54.046 66.153C52.66 66.923 51.043 67.539 49.195 68.001C47.3983 68.463 45.4733 68.694 43.42 68.694ZM20.32 36.431C18.934 36.431 17.7277 36.0973 16.701 35.43C15.6743 34.7113 14.8787 33.7103 14.314 32.427C13.7493 31.1437 13.467 29.6293 13.467 27.884C13.467 26.036 13.8007 24.2137 14.468 22.417C15.1353 20.6203 16.162 19.0033 17.548 17.566C18.9853 16.1287 20.782 14.9993 22.938 14.178C25.1453 13.3053 27.7377 12.869 30.715 12.869C33.487 12.869 36.2333 13.0743 38.954 13.485C41.6747 13.8957 44.344 14.332 46.962 14.794C49.6313 15.2047 52.2237 15.41 54.739 15.41C56.741 15.41 58.5377 15.2817 60.129 15.025C61.7203 14.7683 63.2347 13.9983 64.672 12.715C64.98 13.1257 65.2367 13.6133 65.442 14.178C65.6473 14.7427 65.7243 15.3073 65.673 15.872C65.673 16.8473 65.4163 17.797 64.903 18.721C64.3897 19.645 63.5683 20.415 62.439 21.031C61.3097 21.647 59.821 21.955 57.973 21.955C56.7923 21.955 55.432 21.8267 53.892 21.57C52.4033 21.3133 50.7093 20.9283 48.81 20.415C46.962 19.9017 44.883 19.26 42.573 18.49L42.496 18.259C40.9047 17.6943 39.2877 17.2067 37.645 16.796C36.0023 16.3853 34.3853 16.18 32.794 16.18C29.0467 16.18 26.1463 17.181 24.093 19.183C22.091 21.185 21.09 24.0083 21.09 27.653C21.09 29.0903 21.2953 30.502 21.706 31.888C22.1167 33.274 22.6813 34.5573 23.4 35.738C22.9893 35.9433 22.553 36.123 22.091 36.277C21.629 36.3797 21.0387 36.431 20.32 36.431Z" fill="white"/>
</svg>
